# Blender 4.4.3
# www.blender.org
mtllib model.mtl
o BodyOut
v -0.500000 -1.300000 0.900000
v -0.500000 1.300000 0.900000
v -0.500000 -1.300000 -0.900000
v -0.500000 1.300000 -0.900000
v 0.500000 -1.300000 0.900000
v 0.500000 1.300000 0.900000
v 0.500000 -1.300000 -0.900000
v 0.500000 1.300000 -0.900000
vn -1.0000 -0.0000 -0.0000
vn -0.0000 -0.0000 -1.0000
vn 1.0000 -0.0000 -0.0000
vn -0.0000 -0.0000 1.0000
vn -0.0000 -1.0000 -0.0000
vn -0.0000 1.0000 -0.0000
vt 0.625000 0.250000
vt 0.625000 0.437500
vt 0.500000 0.437500
vt 0.500000 0.250000
vt 0.500000 0.265625
vt 0.500000 0.453125
vt 0.437500 0.453125
vt 0.437500 0.265625
vt 0.437500 0.250000
vt 0.437500 0.437500
vt 0.312500 0.437500
vt 0.312500 0.250000
vt 0.250000 0.437500
vt 0.250000 0.250000
vt 0.437500 0.500000
vt 0.562500 0.437500
vt 0.562500 0.500000
vt 0.437500 0.500000
vt 0.312500 0.500000
s 1
usemtl Material.004
f 1/1/1 2/2/1 4/3/1 3/4/1
f 3/5/2 4/6/2 8/7/2 7/8/2
f 7/9/3 8/10/3 6/11/3 5/12/3
f 5/12/4 6/11/4 2/13/4 1/14/4
f 3/15/5 7/10/5 5/16/5 1/17/5
f 8/10/6 4/18/6 2/19/6 6/11/6
o Head
v 0.800000 2.800000 -0.800000
v 0.800000 1.200000 -0.800000
v 0.800000 2.800000 0.800000
v 0.800000 1.200000 0.800000
v -0.800000 2.800000 -0.800000
v -0.800000 1.200000 -0.800000
v -0.800000 2.800000 0.800000
v -0.800000 1.200000 0.800000
vn -0.0000 1.0000 -0.0000
vn -0.0000 -0.0000 1.0000
vn -1.0000 -0.0000 -0.0000
vn -0.0000 -1.0000 -0.0000
vn 1.0000 -0.0000 -0.0000
vn -0.0000 -0.0000 -1.0000
vt 0.250000 0.875000
vt 0.250000 1.000000
vt 0.125000 1.000000
vt 0.125000 0.875000
vt 0.125000 0.750000
vt 0.000000 0.875000
vt 0.000000 0.750000
vt 0.500000 0.750000
vt 0.500000 0.875000
vt 0.375000 0.875000
vt 0.375000 0.750000
vt 0.375000 1.000000
vt 0.250000 0.750000
s 1
usemtl Material.004
f 9/20/7 13/21/7 15/22/7 11/23/7
f 12/24/8 11/23/8 15/25/8 16/26/8
f 16/27/9 15/28/9 13/29/9 14/30/9
f 14/21/10 10/20/10 12/29/10 16/31/10
f 10/32/11 9/20/11 11/23/11 12/24/11
f 14/30/12 13/29/12 9/20/12 10/32/12
o HeadOut
v -0.900000 1.099999 0.900000
v -0.900000 2.900000 0.900000
v -0.900000 1.099999 -0.900000
v -0.900000 2.899999 -0.900000
v 0.900000 1.099999 0.900000
v 0.900000 2.900000 0.900000
v 0.900000 1.099999 -0.900000
v 0.900000 2.899999 -0.900000
vn -1.0000 -0.0000 -0.0000
vn -0.0000 -0.0000 -1.0000
vn 1.0000 -0.0000 -0.0000
vn -0.0000 -0.0000 1.0000
vn -0.0000 -1.0000 -0.0000
vn -0.0000 1.0000 -0.0000
vt 1.000000 0.750000
vt 1.000000 0.875000
vt 0.875000 0.875000
vt 0.875000 0.750000
vt 0.750000 0.875000
vt 0.750000 0.750000
vt 0.625000 0.875000
vt 0.625000 0.750000
vt 0.500000 0.875000
vt 0.500000 0.750000
vt 0.750000 1.000000
vt 0.875000 1.000000
vt 0.625000 1.000000
s 1
usemtl Material.004
f 17/33/13 18/34/13 20/35/13 19/36/13
f 19/36/14 20/35/14 24/37/14 23/38/14
f 23/38/15 24/37/15 22/39/15 21/40/15
f 21/40/16 22/39/16 18/41/16 17/42/16
f 19/43/17 23/37/17 21/35/17 17/44/17
f 24/37/18 20/43/18 18/45/18 22/39/18
o RArmOut
v -0.500000 -1.299999 1.500000
v -0.500000 1.300000 1.499999
v -0.500000 -1.299999 0.700000
v -0.500000 1.300000 0.700000
v 0.500000 -1.299999 1.500000
v 0.500000 1.300000 1.499999
v 0.500000 -1.299999 0.700000
v 0.500000 1.300000 0.700000
vn -1.0000 -0.0000 -0.0000
vn -0.0000 -0.0000 -1.0000
vn 1.0000 -0.0000 -0.0000
vn -0.0000 -0.0000 1.0000
vn -0.0000 -1.0000 -0.0000
vn -0.0000 1.0000 -0.0000
vt 0.843750 0.250000
vt 0.843750 0.437500
vt 0.796875 0.437500
vt 0.796875 0.250000
vt 0.734375 0.437500
vt 0.734375 0.250000
vt 0.687500 0.437500
vt 0.687500 0.250000
vt 0.625000 0.437500
vt 0.625000 0.250000
vt 0.734375 0.500000
vt 0.781250 0.437500
vt 0.781250 0.500000
vt 0.687500 0.500000
s 1
usemtl Material.004
f 25/46/19 26/47/19 28/48/19 27/49/19
f 27/49/20 28/48/20 32/50/20 31/51/20
f 31/51/21 32/50/21 30/52/21 29/53/21
f 29/53/22 30/52/22 26/54/22 25/55/22
f 27/56/23 31/50/23 29/57/23 25/58/23
f 32/50/24 28/56/24 26/59/24 30/52/24
o LArmOut
v -0.500000 -1.300000 -0.700000
v -0.500000 1.299999 -0.700000
v -0.500000 -1.300000 -1.500000
v -0.500000 1.300000 -1.499999
v 0.500000 -1.300000 -0.700000
v 0.500000 1.299999 -0.700000
v 0.500000 -1.300000 -1.500000
v 0.500000 1.300000 -1.499999
vn -1.0000 -0.0000 -0.0000
vn -0.0000 -0.0000 -1.0000
vn 1.0000 -0.0000 -0.0000
vn -0.0000 -0.0000 1.0000
vn -0.0000 -1.0000 -0.0000
vn -0.0000 1.0000 -0.0000
vt 0.968750 -0.000000
vt 0.968750 0.187500
vt 0.921875 0.187500
vt 0.921875 0.000000
vt 0.859375 0.187500
vt 0.859375 0.000000
vt 0.812500 0.187500
vt 0.812500 0.000000
vt 0.750000 0.187500
vt 0.750000 0.000000
vt 0.859375 0.250000
vt 0.906250 0.187500
vt 0.906250 0.250000
vt 0.812500 0.250000
s 1
usemtl Material.004
f 33/60/25 34/61/25 36/62/25 35/63/25
f 35/63/26 36/62/26 40/64/26 39/65/26
f 39/65/27 40/64/27 38/66/27 37/67/27
f 37/67/28 38/66/28 34/68/28 33/69/28
f 35/70/29 39/64/29 37/71/29 33/72/29
f 40/64/30 36/70/30 34/73/30 38/66/30
o LLegOut
v -0.500000 -3.700000 0.100001
v -0.500000 -1.100000 0.100000
v -0.500000 -3.700000 -0.899999
v -0.500000 -1.100000 -0.900000
v 0.500000 -3.700000 0.100001
v 0.500000 -1.100000 0.100000
v 0.500000 -3.700000 -0.899999
v 0.500000 -1.100000 -0.900000
vn -1.0000 -0.0000 -0.0000
vn -0.0000 -0.0000 -1.0000
vn 1.0000 -0.0000 -0.0000
vn -0.0000 -0.0000 1.0000
vn -0.0000 -1.0000 -0.0000
vn -0.0000 1.0000 -0.0000
vt 0.250000 -0.000000
vt 0.250000 0.187500
vt 0.187500 0.187500
vt 0.187500 0.000000
vt 0.125000 0.187500
vt 0.125000 0.000000
vt 0.062500 0.187500
vt 0.062500 0.000000
vt 0.000000 0.187500
vt 0.000000 0.000000
vt 0.125000 0.250000
vt 0.187500 0.250000
vt 0.062500 0.250000
s 1
usemtl Material.004
f 41/74/31 42/75/31 44/76/31 43/77/31
f 43/77/32 44/76/32 48/78/32 47/79/32
f 47/79/33 48/78/33 46/80/33 45/81/33
f 45/81/34 46/80/34 42/82/34 41/83/34
f 43/84/35 47/78/35 45/76/35 41/85/35
f 48/78/36 44/84/36 42/86/36 46/80/36
o RLegOut
v -0.500000 -3.700001 0.899999
v -0.500000 -1.100001 0.900000
v -0.500000 -3.700001 -0.100001
v -0.500000 -1.100001 -0.100000
v 0.500000 -3.700001 0.899999
v 0.500000 -1.100001 0.900000
v 0.500000 -3.700001 -0.100001
v 0.500000 -1.100001 -0.100000
vn -1.0000 -0.0000 -0.0000
vn -0.0000 -0.0000 -1.0000
vn 1.0000 -0.0000 -0.0000
vn -0.0000 -0.0000 1.0000
vn -0.0000 -1.0000 -0.0000
vn -0.0000 1.0000 -0.0000
vt 0.250000 0.250000
vt 0.250000 0.437500
vt 0.187500 0.437500
vt 0.187500 0.250000
vt 0.125000 0.437500
vt 0.125000 0.250000
vt 0.062500 0.437500
vt 0.062500 0.250000
vt 0.000000 0.437500
vt 0.000000 0.250000
vt 0.125000 0.500000
vt 0.187500 0.500000
vt 0.062500 0.500000
s 1
usemtl Material.004
f 49/87/37 50/88/37 52/89/37 51/90/37
f 51/90/38 52/89/38 56/91/38 55/92/38
f 55/92/39 56/91/39 54/93/39 53/94/39
f 53/94/40 54/93/40 50/95/40 49/96/40
f 51/97/41 55/91/41 53/89/41 49/98/41
f 56/91/42 52/97/42 50/99/42 54/93/42
o Body
v -0.400000 -1.200001 0.800000
v -0.400000 1.200000 0.800000
v -0.400000 -1.200000 -0.800000
v -0.400000 1.200000 -0.800000
v 0.400000 -1.200001 0.800000
v 0.400000 1.200000 0.800000
v 0.400000 -1.200000 -0.800000
v 0.400000 1.200000 -0.800000
vn -1.0000 -0.0000 -0.0000
vn -0.0000 -0.0000 -1.0000
vn 1.0000 -0.0000 -0.0000
vn -0.0000 -0.0000 1.0000
vn -0.0000 -1.0000 -0.0000
vn -0.0000 1.0000 -0.0000
vt 0.625000 0.500000
vt 0.625000 0.687500
vt 0.500000 0.687500
vt 0.500000 0.500000
vt 0.437500 0.687500
vt 0.437500 0.500000
vt 0.312500 0.687500
vt 0.312500 0.500000
vt 0.250000 0.687500
vt 0.250000 0.500000
vt 0.437500 0.750000
vt 0.562500 0.687500
vt 0.562500 0.750000
vt 0.312500 0.750000
s 1
usemtl Material.004
f 57/100/43 58/101/43 60/102/43 59/103/43
f 59/103/44 60/102/44 64/104/44 63/105/44
f 63/105/45 64/104/45 62/106/45 61/107/45
f 61/107/46 62/106/46 58/108/46 57/109/46
f 59/110/47 63/104/47 61/111/47 57/112/47
f 64/104/48 60/110/48 58/113/48 62/106/48
o RArm
v -0.400000 -1.199999 1.400000
v -0.400000 1.200000 1.400000
v -0.400000 -1.199999 0.800000
v -0.400000 1.200000 0.800000
v 0.400000 -1.199999 1.400000
v 0.400000 1.200000 1.400000
v 0.400000 -1.199999 0.800000
v 0.400000 1.200000 0.800000
vn -1.0000 -0.0000 -0.0000
vn -0.0000 -0.0000 -1.0000
vn 1.0000 -0.0000 -0.0000
vn -0.0000 -0.0000 1.0000
vn -0.0000 -1.0000 -0.0000
vn -0.0000 1.0000 -0.0000
vt 0.843750 0.500000
vt 0.843750 0.687500
vt 0.796875 0.687500
vt 0.796875 0.500000
vt 0.734375 0.687500
vt 0.734375 0.500000
vt 0.687500 0.687500
vt 0.687500 0.500000
vt 0.625000 0.687500
vt 0.625000 0.500000
vt 0.734375 0.750000
vt 0.781250 0.687500
vt 0.781250 0.750000
vt 0.687500 0.750000
s 1
usemtl Material.004
f 65/114/49 66/115/49 68/116/49 67/117/49
f 67/117/50 68/116/50 72/118/50 71/119/50
f 71/119/51 72/118/51 70/120/51 69/121/51
f 69/121/52 70/120/52 66/122/52 65/123/52
f 67/124/53 71/118/53 69/125/53 65/126/53
f 72/118/54 68/124/54 66/127/54 70/120/54
o LArm
v -0.400000 -1.200000 -0.800000
v -0.400000 1.200000 -0.800000
v -0.400000 -1.199999 -1.400000
v -0.400000 1.200000 -1.400000
v 0.400000 -1.200000 -0.800000
v 0.400000 1.200000 -0.800000
v 0.400000 -1.199999 -1.400000
v 0.400000 1.200000 -1.400000
vn -1.0000 -0.0000 -0.0000
vn -0.0000 -0.0000 -1.0000
vn 1.0000 -0.0000 -0.0000
vn -0.0000 -0.0000 1.0000
vn -0.0000 -1.0000 -0.0000
vn -0.0000 1.0000 -0.0000
vt 0.718751 -0.000000
vt 0.718751 0.187500
vt 0.671876 0.187500
vt 0.671876 0.000000
vt 0.671875 0.000000
vt 0.671875 0.187500
vt 0.609375 0.187500
vt 0.609375 0.000000
vt 0.562500 0.187500
vt 0.562500 0.000000
vt 0.500000 0.187500
vt 0.500000 0.000000
vt 0.609375 0.250000
vt 0.656250 0.187500
vt 0.656250 0.250000
vt 0.562500 0.250000
s 1
usemtl Material.004
f 73/128/55 74/129/55 76/130/55 75/131/55
f 75/132/56 76/133/56 80/134/56 79/135/56
f 79/135/57 80/134/57 78/136/57 77/137/57
f 77/137/58 78/136/58 74/138/58 73/139/58
f 75/140/59 79/134/59 77/141/59 73/142/59
f 80/134/60 76/140/60 74/143/60 78/136/60
o LLeg
v -0.400000 -3.600000 0.000001
v -0.400000 -1.200000 0.000000
v -0.400000 -3.600000 -0.799999
v -0.400000 -1.200000 -0.800000
v 0.400000 -3.600000 0.000001
v 0.400000 -1.200000 0.000000
v 0.400000 -3.600000 -0.799999
v 0.400000 -1.200000 -0.800000
vn -1.0000 -0.0000 -0.0000
vn -0.0000 -0.0000 -1.0000
vn 1.0000 -0.0000 -0.0000
vn -0.0000 -0.0000 1.0000
vn -0.0000 -1.0000 -0.0000
vn -0.0000 1.0000 -0.0000
vt 0.500000 -0.000000
vt 0.500000 0.187500
vt 0.437500 0.187500
vt 0.437500 0.000000
vt 0.375000 0.187500
vt 0.375000 0.000000
vt 0.312500 0.187500
vt 0.312500 0.000000
vt 0.250000 0.187500
vt 0.250000 0.000000
vt 0.375000 0.250000
vt 0.437500 0.250000
vt 0.312500 0.250000
s 1
usemtl Material.004
f 81/144/61 82/145/61 84/146/61 83/147/61
f 83/147/62 84/146/62 88/148/62 87/149/62
f 87/149/63 88/148/63 86/150/63 85/151/63
f 85/151/64 86/150/64 82/152/64 81/153/64
f 83/154/65 87/148/65 85/146/65 81/155/65
f 88/148/66 84/154/66 82/156/66 86/150/66
o RLeg
v -0.400000 -3.600001 0.799999
v -0.400000 -1.200001 0.800000
v -0.400000 -3.600001 -0.000001
v -0.400000 -1.200001 0.000000
v 0.400000 -3.600001 0.799999
v 0.400000 -1.200001 0.800000
v 0.400000 -3.600001 -0.000001
v 0.400000 -1.200001 0.000000
vn -1.0000 -0.0000 -0.0000
vn -0.0000 -0.0000 -1.0000
vn 1.0000 -0.0000 -0.0000
vn -0.0000 -0.0000 1.0000
vn -0.0000 -1.0000 -0.0000
vn -0.0000 1.0000 -0.0000
vt 0.250000 0.500000
vt 0.250000 0.687500
vt 0.187500 0.687500
vt 0.187500 0.500000
vt 0.125000 0.687500
vt 0.125000 0.500000
vt 0.062500 0.687500
vt 0.062500 0.500000
vt 0.000000 0.687500
vt 0.000000 0.500000
vt 0.125000 0.750000
vt 0.187500 0.750000
vt 0.062500 0.750000
s 1
usemtl Material.004
f 89/157/67 90/158/67 92/159/67 91/160/67
f 91/160/68 92/159/68 96/161/68 95/162/68
f 95/162/69 96/161/69 94/163/69 93/164/69
f 93/164/70 94/163/70 90/165/70 89/166/70
f 91/167/71 95/161/71 93/159/71 89/168/71
f 96/161/72 92/167/72 90/169/72 94/163/72
